<svg xmlns="http://www.w3.org/2000/svg" width="249.388" height="39.382" viewBox="0 0 249.388 39.382">
  <g id="Group_4" data-name="Group 4" transform="translate(-51.828 -250.314)">
    <path id="Path_1" data-name="Path 1" d="M45.762,0V-38.686h-11.6l-9.4,24.128-9.4-24.128H3.828V0h8.236V-27.84L22.968,0h3.6l10.9-27.84V0Zm5.684-14.036C51.446-5.046,57.884.7,66.41.7,70.76.7,75.11-.58,77.952-3.19L74.7-7.946a11.456,11.456,0,0,1-7.482,2.784c-4.756,0-7.6-2.958-8.062-6.5H79.982v-1.624c0-9.164-5.684-15.428-14.036-15.428C57.42-28.71,51.446-22.156,51.446-14.036Zm14.5-8.816a6.489,6.489,0,0,1,6.9,6.206h-13.8A6.732,6.732,0,0,1,65.946-22.852ZM112,0V-38.686h-7.424v14.268a10.789,10.789,0,0,0-8.642-4.292c-7.134,0-12.412,5.568-12.412,14.732C83.52-4.64,88.856.7,95.932.7a10.988,10.988,0,0,0,8.642-4.234V0Zm-7.424-9.048a8.1,8.1,0,0,1-6.38,3.19c-4.176,0-7.076-3.306-7.076-8.12,0-4.872,2.9-8.178,7.076-8.178a8.1,8.1,0,0,1,6.38,3.19Z" transform="translate(48 289)" fill="#2ca6ff"/>
    <path id="Path_2" data-name="Path 2" d="M21.054,0V-31.436H32.306v-7.25H1.45v7.25H12.76V0ZM40.832,0V-18.5c1.218-1.8,4.466-3.132,6.9-3.132a9.783,9.783,0,0,1,2.03.174v-7.192a11.984,11.984,0,0,0-8.932,4.466v-3.828H33.466V0Zm37.7,0V-18.1c0-8.062-5.858-10.614-12.238-10.614A18.376,18.376,0,0,0,54.056-24.3l2.784,4.93a11.787,11.787,0,0,1,8.178-3.306c3.712,0,6.148,1.856,6.148,4.7v3.886C69.31-16.356,66-17.516,62.292-17.516c-4.466,0-9.744,2.378-9.744,8.932C52.548-2.32,57.826.7,62.292.7a11.592,11.592,0,0,0,8.874-3.6V0ZM71.166-6.728C69.948-5.1,67.628-4.292,65.25-4.292c-2.9,0-5.278-1.508-5.278-4.118,0-2.668,2.378-4.234,5.278-4.234,2.378,0,4.7.812,5.916,2.436ZM113.216,0,101.79-15.312l11.078-12.7H103.82L93.206-15.544V-38.686H85.84V0h7.366V-7.192l3.364-3.6L103.994,0Z" transform="translate(188 289)" fill="#2ca6ff"/>
    <g id="Group_2" data-name="Group 2">
      <g id="Group_1" data-name="Group 1" transform="translate(48 -164.594)">
        <g id="Rectangle_1" data-name="Rectangle 1" transform="translate(120 415.594)" fill="none" stroke="#ff4d4d" stroke-width="5">
          <rect width="16" height="38" rx="8" stroke="none"/>
          <rect x="2.5" y="2.5" width="11" height="33" rx="5.5" fill="none"/>
        </g>
        <line id="Line_1" data-name="Line 1" x2="13" transform="translate(122 434.594)" fill="none" stroke="#ff4d4d" stroke-width="5"/>
      </g>
      <ellipse id="Ellipse_1" data-name="Ellipse 1" cx="6" cy="15.5" rx="6" ry="15.5" transform="translate(170 255)" fill="#ff4d4d"/>
      <line id="Line_4" data-name="Line 4" x2="20" transform="translate(166 270.5)" fill="none" stroke="#fff" stroke-width="5"/>
    </g>
  </g>
</svg>
